<?xml version="1.0" standalone="yes"?>
<svg   
  width="24px"
  height="24px"
  viewBox="0 0 24 24" 
  xmlns="http://www.w3.org/2000/svg"
  transform="matrix(-1, 0, 0, 1, 0, 0)">
  <g 
    stroke-linecap="round" 
    stroke-linejoin="round" 
    stroke="#ffffff" stroke-width="1.5"> 
    <path d="M3.578,21.908,1.621,17.951a.75.75,0,0,1-.077-.333V7.511H.75a.75.75,0,0,1,0-1.5h.794V2.721A2.721,2.721,0,0,1,4.193,0h.113a2.721,2.721,0,0,1,2.651,2.72V6.012H7.75a.75.75,0,1,1,0,1.5H6.957V17.618a.751.751,0,0,1-.078.333L4.922,21.908a.75.75,0,0,1-1.345,0Z" transform="translate(1.131 7.185) rotate(-45)"></path> 
  </g>
  <g> 
    <path d="M3.578,21.908,1.621,17.951a.75.75,0,0,1-.077-.333V7.511H.75a.75.75,0,0,1,0-1.5h.794V2.721A2.721,2.721,0,0,1,4.193,0h.113a2.721,2.721,0,0,1,2.651,2.72V6.012H7.75a.75.75,0,1,1,0,1.5H6.957V17.618a.751.751,0,0,1-.078.333L4.922,21.908a.75.75,0,0,1-1.345,0Z" transform="translate(1.131 7.185) rotate(-45)"></path> 
  </g>
</svg>